%FSTAX24Y24*%
%MOIN*%
%SFA1B1*%

%IPPOS*%
%AMD20*
4,1,8,-0.017700,0.008100,-0.017700,-0.008100,-0.015000,-0.010800,0.015000,-0.010800,0.017700,-0.008100,0.017700,0.008100,0.015000,0.010800,-0.015000,0.010800,-0.017700,0.008100,0.0*
1,1,0.005400,-0.015000,0.008100*
1,1,0.005400,-0.015000,-0.008100*
1,1,0.005400,0.015000,-0.008100*
1,1,0.005400,0.015000,0.008100*
%
%AMD25*
4,1,8,-0.022600,0.002900,-0.022600,-0.002900,-0.019600,-0.005900,0.019600,-0.005900,0.022600,-0.002900,0.022600,0.002900,0.019600,0.005900,-0.019600,0.005900,-0.022600,0.002900,0.0*
1,1,0.006000,-0.019600,0.002900*
1,1,0.006000,-0.019600,-0.002900*
1,1,0.006000,0.019600,-0.002900*
1,1,0.006000,0.019600,0.002900*
%
%AMD26*
4,1,8,-0.024600,0.002900,-0.024600,-0.002900,-0.021600,-0.005900,0.021600,-0.005900,0.024600,-0.002900,0.024600,0.002900,0.021600,0.005900,-0.021600,0.005900,-0.024600,0.002900,0.0*
1,1,0.006000,-0.021600,0.002900*
1,1,0.006000,-0.021600,-0.002900*
1,1,0.006000,0.021600,-0.002900*
1,1,0.006000,0.021600,0.002900*
%
%ADD10C,0.011800*%
%ADD11C,0.019700*%
%ADD12C,0.009800*%
%ADD13C,0.007900*%
%ADD14C,0.013800*%
%ADD15C,0.013800*%
%ADD16R,0.030000X0.030000*%
%ADD17R,0.025000X0.020000*%
%ADD18R,0.043300X0.031500*%
%ADD19R,0.043300X0.078700*%
G04~CAMADD=20~8~0.0~0.0~217.0~354.0~27.0~0.0~15~0.0~0.0~0.0~0.0~0~0.0~0.0~0.0~0.0~0~0.0~0.0~0.0~90.0~354.0~216.0*
%ADD20D20*%
%ADD21R,0.030000X0.030000*%
%ADD22R,0.015700X0.013800*%
%ADD23R,0.020000X0.025000*%
%ADD24C,0.009100*%
G04~CAMADD=25~8~0.0~0.0~118.0~453.0~30.0~0.0~15~0.0~0.0~0.0~0.0~0~0.0~0.0~0.0~0.0~0~0.0~0.0~0.0~90.0~452.0~118.0*
%ADD25D25*%
G04~CAMADD=26~8~0.0~0.0~118.0~492.0~30.0~0.0~15~0.0~0.0~0.0~0.0~0~0.0~0.0~0.0~0.0~0~0.0~0.0~0.0~90.0~492.0~118.0*
%ADD26D26*%
%ADD27R,0.078700X0.059100*%
%ADD28R,0.019700X0.019700*%
%ADD29C,0.015700*%
%ADD30C,0.004900*%
%ADD31C,0.017700*%
%ADD32C,0.027600*%
%ADD33C,0.017700*%
%LNbot-1*%
%LPD*%
%SRX1Y1I0J0*%
G36*
X001116Y00864D02*
X001155Y008577D01*
X001149Y008543*
X00116Y008486*
X001193Y008437*
X001242Y008404*
X001299Y008393*
X001306Y008394*
X001459Y008242*
X001445Y008203*
X001431Y008181*
X001379Y008171*
X00134Y008144*
X001309Y008138*
X001289*
X001259Y008144*
X001219Y008171*
X001161Y008182*
X001104Y008171*
X001055Y008138*
X001022Y008089*
X001011Y008031*
X001022Y007974*
X001055Y007925*
X001064Y007919*
Y007686*
Y007685*
X001063*
X001077Y007618*
X001116Y007559*
X001117Y00756*
X001311Y007366*
X001297Y007327*
X001283Y007305*
X001232Y007295*
X001183Y007262*
X00115Y007213*
X001139Y007156*
X00115Y007098*
X001174Y007063*
X001158Y007015*
X001146Y007*
X001131*
Y006821*
X001031*
Y007*
X000877*
Y006798*
X000819Y006774*
X000703Y00689*
X000701Y006895*
Y006976*
X000707Y00698*
X000739Y007029*
X000751Y007087*
X000739Y007144*
X000707Y007193*
X000658Y007226*
X0006Y007237*
X000543Y007226*
X000494Y007193*
X000461Y007144*
X00045Y007087*
X000461Y007029*
X000494Y00698*
X0005Y006976*
Y006883*
X000498*
X000512Y006814*
X000551Y006755*
X000553Y006756*
X000725Y006584*
X000701Y006526*
X000541*
Y006428*
X000699*
Y006378*
X000749*
Y00623*
X000856*
Y00625*
X001083*
Y006356*
X001177*
X00123Y006299*
X00124Y006251*
X001267Y00621*
X001307Y006183*
Y006299*
X001407*
Y006183*
X001446Y00621*
X00145Y006216*
X001473Y006201*
X001514Y006193*
X001544Y006199*
X00167*
Y006197*
X001739Y006211*
X001798Y00625*
X001814Y006267*
X00183Y006283*
X00187Y006341*
X001876Y006372*
X001888Y00638*
X001921Y006429*
X001924Y006444*
X001988*
X001998Y006391*
X002038Y006332*
X00204*
X002111Y006261*
X00211Y00626*
X002168Y006221*
X002237Y006207*
Y006209*
X002409*
X002413Y006203*
X002462Y00617*
X00252Y006159*
X002577Y00617*
X002626Y006203*
X00264Y006223*
X002715Y006237*
X00277Y006182*
X002769Y006181*
X002828Y006142*
X002897Y006128*
Y00613*
X003031*
X00307Y006138*
X003102Y006159*
X003201Y006258*
X003209Y006257*
X003266Y006268*
X003315Y006301*
X003348Y00635*
X003359Y006407*
X003348Y006465*
X003315Y006514*
X003266Y006547*
X003209Y006558*
X003151Y006547*
X003111Y00652*
X003102Y006524*
X003069Y006573*
X00302Y006606*
X002963Y006617*
X002905Y006606*
X002865Y006579*
X002784Y006659*
X002752Y006692*
X002783Y00675*
X002785Y006749*
X002843Y006761*
X002892Y006793*
X002925Y006842*
X002936Y0069*
X002925Y006957*
X002943Y007017*
X002961Y007029*
X002993Y007078*
X003005Y007136*
X002993Y007193*
X002983Y007209*
X003017Y007272*
X004719*
X004755Y007257*
X004782Y00723*
X004797Y007194*
Y006774*
X004793Y006713*
X004734*
X004371*
Y006339*
Y005965*
X004734*
X004793*
X004797Y005903*
Y000849*
X004793Y000787*
X004734*
X004371*
Y000413*
Y000039*
X004734*
X004793*
X004797Y-000022*
Y-00022*
X004782Y-000256*
X004755Y-000283*
X004726Y-000295*
X004717Y-000294*
X004711Y-000295*
X004705Y-000293*
X003677*
X003624Y-000268*
Y-00023*
Y-000089*
X003396*
X003167*
Y-00023*
Y-000268*
X003114Y-000293*
X003098*
X003055Y-000248*
Y-00023*
Y00017*
X00285*
X002806Y000188*
X002714Y0002*
X002694*
X002635Y00021*
X002561Y000267*
X002539Y000276*
X002535Y000279*
X002525Y000285*
X002484Y000305*
X002446Y000326*
X002443Y000327*
X002438Y00033*
X002427Y000332*
X002411Y000335*
X002385Y000342*
X002338Y000383*
Y000761*
X002319Y000806*
X002274Y000825*
X002023*
X002018Y000823*
X002013Y000824*
X002004Y000819*
X001994Y000818*
X001987Y00081*
X001978Y000806*
X001976Y000801*
X001971Y000799*
X001939Y000755*
X001866Y000677*
X001783Y000614*
X00169Y000564*
X00159Y00053*
X001487Y000513*
X001381*
X001278Y00053*
X001178Y000564*
X001085Y000614*
X001002Y000677*
X000929Y000755*
X000897Y000799*
X000893Y000801*
X000891Y000806*
X000872Y000814*
X000855Y000824*
X00085Y000823*
X000845Y000825*
X000591*
X000545Y000806*
X000527Y000761*
Y000073*
X000545Y000028*
X000591Y000009*
X002274*
X002303Y000021*
X002334*
X002341Y000018*
X002344Y000016*
X002354Y000009*
X002355*
X002395Y-000011*
X002396*
X002408Y-000017*
X002409Y-000018*
X002482Y-000073*
X002568Y-000109*
X002637Y-000118*
Y-00023*
Y-000248*
X002593Y-000293*
X000276*
X000241Y-000279*
X000213Y-000252*
X000199Y-000216*
Y-000197*
Y008543*
Y008562*
X000213Y008598*
X000241Y008625*
X000276Y00864*
X000295*
X001116*
G37*
G36*
X000845Y000761D02*
X000879Y000714D01*
X000959Y00063*
X00105Y00056*
X001153Y000505*
X001262Y000468*
X001376Y000449*
X001492*
X001606Y000468*
X001716Y000505*
X001818Y00056*
X001909Y00063*
X001989Y000714*
X002023Y000761*
X002274*
Y000073*
X000591*
Y000761*
X000845*
G37*
%LNbot-2*%
%LPC*%
%SRX1Y1I0J0*%
G36*
X004271Y006713D02*
X003848D01*
Y006389*
X004271*
Y006713*
G37*
G36*
X000649Y006328D02*
X000541D01*
Y00623*
X000649*
Y006328*
G37*
G36*
X001997Y006104D02*
X001843D01*
Y005975*
X001997*
Y006104*
G37*
G36*
X004271Y006289D02*
X003848D01*
Y005965*
X004271*
Y006289*
G37*
G36*
X000515Y005792D02*
X00027D01*
Y005369*
X000515*
Y005792*
G37*
G36*
X002251Y006104D02*
D01*
X002097*
Y005925*
X002047*
Y005875*
X001843*
Y005746*
Y005688*
X002047*
Y005588*
X001843*
Y005459*
Y0054*
X002047*
Y0053*
X001843*
Y005172*
Y005113*
X002047*
Y005013*
X001843*
Y004884*
Y004826*
X002047*
Y004726*
X001843*
Y004597*
Y004538*
X002047*
Y004438*
X001843*
Y004363*
X001641*
Y004184*
X002099*
Y004309*
X002202*
X002211*
Y004296*
Y003925*
X002629*
Y003955*
X002696*
X002744Y003898*
Y003865*
X002734Y003834*
X002686Y003809*
X002619*
Y003661*
X002519*
Y003809*
X002411*
Y003789*
X002185*
X002132Y003737*
X002074Y003726*
X002025Y003693*
X001993Y003645*
X001981Y003587*
X001993Y003529*
X001996Y003525*
Y003513*
X001978Y003457*
X001959*
X001909Y003447*
X001878Y003427*
X001828*
X001795Y00342*
X001766Y003401*
X001747Y003373*
X00174Y003339*
Y003177*
X001747Y003143*
X001766Y003115*
X001795Y003096*
X001828Y003089*
X002128*
X00213*
X002193Y003057*
X002371*
Y003286*
X002421*
Y003336*
X00265*
Y003466*
X002671Y00348*
X002738Y00346*
X002744Y003454*
Y003445*
X002751Y00341*
X002771Y003381*
Y003371*
X002751Y003342*
X002744Y003307*
Y003248*
X002751Y003213*
X002771Y003184*
Y003174*
X002751Y003145*
X002744Y00311*
Y003051*
X002751Y003017*
X002771Y002987*
Y002977*
X002751Y002948*
X002744Y002913*
Y002854*
X002751Y00282*
X002771Y00279*
Y00278*
X002751Y002751*
X002744Y002717*
Y002657*
X002751Y002623*
X002759Y002611*
X002757Y002598*
X002733Y002562*
X002688Y002523*
X00263Y002537*
Y002586*
Y002945*
X002212*
X002184Y002957*
X002173Y002964*
X002115Y002975*
X002058Y002964*
X002009Y002931*
X001976Y002882*
X001975Y002876*
X001828*
X001795Y002869*
X001766Y00285*
X001747Y002822*
X00174Y002788*
Y002625*
X001747Y002592*
X001766Y002563*
X001795Y002544*
X001828Y002538*
X001897*
Y002414*
X002101*
Y002364*
X002151*
Y002185*
X002304*
X002359Y002205*
X002464*
X002527Y002142*
Y002131*
Y002068*
Y002067*
X002537Y001995*
X002564Y001928*
X002609Y00187*
X002666Y001826*
X002704Y00181*
X002736Y001781*
X002745Y001733*
X002744Y001732*
Y001673*
X002751Y001639*
X002771Y001609*
Y001599*
X002751Y00157*
X002744Y001535*
Y001476*
X002751Y001442*
X002771Y001413*
Y001402*
X002751Y001373*
X002744Y001339*
Y00128*
X002751Y001245*
X002771Y001216*
Y001206*
X002751Y001176*
X002744Y001142*
Y001083*
X002751Y001048*
X002771Y001019*
X0028Y000999*
X002835Y000992*
X003228*
X003263Y000999*
X003292Y001019*
X003312Y001048*
X003319Y001083*
Y001142*
X003367Y001199*
X00361*
X003653Y00117*
X003711Y001159*
X003768Y00117*
X003817Y001203*
X00385Y001251*
X003861Y001309*
X00385Y001367*
X003817Y001415*
X003768Y001448*
X003711Y00146*
X003653Y001448*
X00361Y001419*
X003595*
X003551Y001482*
X003556Y001506*
X003545Y001564*
X003512Y001612*
X003463Y001645*
X003406Y001656*
X003378Y001651*
X003364Y001656*
X003322Y001693*
X003319Y001699*
Y001732*
X003312Y001767*
X003294Y001794*
X003312Y001806*
X003331Y001836*
X003338Y00187*
Y001929*
X003331Y001964*
X003312Y001993*
X003294Y002005*
X003312Y002032*
X003319Y002067*
Y002126*
X003312Y002161*
X003292Y00219*
Y0022*
X003312Y002229*
X003319Y002264*
Y002323*
X003312Y002357*
X003304Y002369*
X003306Y002383*
X00333Y002418*
X003335Y00244*
X003031*
Y00254*
X003357*
X003391Y002577*
X003743*
X003771Y002558*
X003829Y002546*
X003886Y002558*
X003935Y00259*
X003968Y002639*
X003979Y002697*
X003968Y002754*
X003935Y002803*
X003886Y002836*
X003829Y002847*
X003771Y002836*
X003722Y002803*
X003718Y002797*
X003605*
X003561Y00286*
X003566Y002884*
X003561Y002907*
X003605Y00297*
X003743*
X003771Y002951*
X003829Y00294*
X003886Y002951*
X003935Y002984*
X003968Y003033*
X003979Y003091*
X003968Y003148*
X003935Y003197*
X003886Y00323*
X003829Y003241*
X003771Y00323*
X003722Y003197*
X003718Y003191*
X003605*
X003561Y003254*
X003566Y003278*
X003561Y003301*
X003605Y003364*
X003728*
X003771Y003335*
X003829Y003324*
X003886Y003335*
X003935Y003368*
X003968Y003417*
X003979Y003474*
X003968Y003532*
X003935Y003581*
X003886Y003613*
X003829Y003625*
X003771Y003613*
X003728Y003585*
X003595*
X003551Y003648*
X003556Y003671*
X003545Y003729*
X003519Y003768*
X003526Y003828*
X003552Y003867*
X003562Y003914*
Y004041*
X003676Y004156*
X003709Y004162*
X003758Y004195*
X003791Y004244*
X003802Y004301*
X003791Y004359*
X003758Y004408*
X003709Y00444*
X003652Y004452*
X003594Y00444*
X003545Y004408*
X003512Y004359*
X003506Y004326*
X0034Y00422*
X003376Y004225*
X003339Y004248*
Y004291*
X00333Y004334*
X003306Y004369*
X003304Y004383*
X003312Y004395*
X003319Y004429*
Y004488*
X003312Y004523*
X003292Y004552*
Y004562*
X003312Y004591*
X003319Y004626*
Y004685*
X003312Y00472*
X003292Y004749*
Y004759*
X003312Y004788*
X003319Y004823*
Y004882*
X003367Y004939*
X003433*
X003476Y00491*
X003533Y004899*
X003591Y00491*
X00364Y004943*
X003673Y004992*
X003684Y005049*
X003673Y005107*
X00364Y005156*
X003591Y005188*
X003533Y0052*
X003476Y005188*
X003433Y00516*
X003367*
X003319Y005217*
Y005276*
X003367Y005333*
X003452*
X003482Y005312*
X00354Y005301*
X003598Y005312*
X003646Y005345*
X003679Y005394*
X00369Y005451*
X003679Y005509*
X003646Y005558*
X003598Y00559*
X00354Y005602*
X003482Y00559*
X003433Y005558*
X003431Y005553*
X003367*
X003319Y00561*
Y005669*
X003312Y005704*
X003292Y005733*
X003263Y005753*
X003228Y00576*
X002959*
X002799Y00592*
X002757Y005965*
X002756Y005966*
X002688Y006012*
X002635Y006022*
Y006084*
X002306*
X002251Y006104*
G37*
G36*
X001043Y005938D02*
X000986Y005926D01*
X000937Y005894*
X000904Y005845*
X000903Y005837*
X000861Y005792*
X000833*
X000615*
Y005369*
X000861*
Y005682*
X000924Y005701*
X000937Y005681*
X000952Y005671*
X000995Y005631*
X001012Y005586*
X001022Y00557*
Y005276*
X001573*
Y005709*
X00123*
X001189Y005766*
X001194Y005787*
X001182Y005845*
X00115Y005894*
X001101Y005926*
X001043Y005938*
G37*
G36*
X002099Y004084D02*
X00192D01*
Y003905*
X002099*
Y004084*
G37*
G36*
X00182D02*
X001641D01*
Y003905*
X00182*
Y004084*
G37*
G36*
X00265Y003236D02*
X002471D01*
Y003057*
X00265*
Y003236*
G37*
G36*
X000861Y005269D02*
X000565D01*
X00027*
Y004847*
X00028*
X00029Y004788*
Y004784*
Y004355*
X000527*
X000546Y004292*
X000514Y00427*
X000481Y004221*
X000478Y004205*
X000437Y004152*
X00041Y004087*
X000402Y004021*
X000401Y004018*
Y003839*
X000266*
Y002933*
X000817*
Y003839*
X000662*
Y004016*
X000664Y004018*
X000678Y004024*
X000727Y004057*
X000759Y004106*
X000771Y004163*
X000759Y004221*
X000727Y00427*
X000694Y004292*
X000713Y004355*
X000841*
Y004421*
X001022*
Y004292*
X001042*
X001091Y004259*
Y003873*
Y003828*
Y003487*
X00111Y00347*
Y003151*
X000982*
X000948Y003145*
X00092Y003126*
X000901Y003097*
X000894Y003063*
Y002901*
X000901Y002867*
X000905Y002861*
X000876Y002798*
X000817*
Y002854*
X000266*
Y002421*
X000817*
Y002477*
X001231*
Y002006*
X000581*
X000536Y001988*
X000517Y001943*
Y001257*
X000536Y001212*
X000581Y001193*
X000842*
X000846Y001195*
X000851Y001194*
X000868Y001204*
X000887Y001212*
X000889Y001216*
X000893Y001219*
X000925Y001262*
X000998Y001339*
X001081Y001403*
X001174Y001452*
X001273Y001485*
X001376Y001502*
X001481*
X001585Y001485*
X001684Y001452*
X001776Y001403*
X00186Y001339*
X001933Y001262*
X001965Y001219*
X001969Y001216*
X001971Y001212*
X001989Y001204*
X002006Y001194*
X002011Y001195*
X002016Y001193*
X002274*
X002319Y001212*
X002338Y001257*
Y001943*
X002319Y001988*
X002274Y002006*
X001632*
Y002638*
X001617Y002715*
X001574Y00278*
X001539Y002803*
X001531Y002821*
X00139Y002962*
Y003487*
X001409*
Y003873*
Y003918*
Y004259*
X001458Y004292*
X001573*
Y005197*
X001022*
Y004722*
X000843*
X000841Y004785*
Y004788*
X000851Y004847*
X000861*
Y005269*
G37*
G36*
X002051Y002314D02*
X001897D01*
Y002185*
X002051*
Y002314*
G37*
G36*
X004271Y000787D02*
X003848D01*
Y000463*
X004271*
Y000787*
G37*
G36*
Y000363D02*
X003848D01*
Y000039*
X004271*
Y000363*
G37*
G36*
X003624Y000189D02*
X003446D01*
Y000011*
X003624*
Y000189*
G37*
G36*
X003346D02*
X003167D01*
Y000011*
X003346*
Y000189*
G37*
%LNbot-3*%
%LPD*%
%SRX1Y1I0J0*%
G36*
X001486Y002776D02*
Y002756D01*
X001368*
X00125Y002638*
X001299Y002963*
X001486Y002776*
G37*
G36*
X002274Y001257D02*
X002016D01*
X001982Y001303*
X001903Y001387*
X001811Y001457*
X001709Y001511*
X0016Y001548*
X001486Y001566*
X001371*
X001258Y001548*
X001148Y001511*
X001047Y001457*
X000955Y001387*
X000876Y001303*
X000842Y001257*
X000581*
Y001943*
X002274*
Y001257*
G37*
G54D10*
X003435Y004035D02*
D01*
D01*
G75*
G03X003357Y004065I-000080J-000093D01*
G74*G01*
X00332Y003878D02*
X003406D01*
X00331Y003868D02*
X00332Y003878D01*
X003031Y003868D02*
X00331D01*
X003406Y003878D02*
X003441Y003914D01*
Y004091*
X003357Y004065D02*
D01*
X003031D02*
X003357D01*
X003441Y004091D02*
X003652Y004301D01*
G54D11*
X002841Y-000007D02*
D01*
D01*
G75*
G03X002714Y000039I-000124J-000146D01*
G74*G01*
X002377Y000182D02*
D01*
D01*
G75*
G03X002419Y000157I000118J000151D01*
G74*G01*
X002521Y000097D02*
D01*
D01*
G75*
G03X00266Y000039I000141J000144D01*
G74*G01*
X001634Y000269D02*
D01*
D01*
G75*
G03X001487Y000236I-000034J-000192D01*
G74*G01*
X002521Y000097D02*
D01*
D01*
G75*
G03X00246Y000138I-000132J-000130D01*
G74*G01*
X002841Y-000007D02*
X002844Y-00001D01*
X002419Y000157D02*
X00246Y000138D01*
X002377Y000182D02*
D01*
X00266Y000039D02*
X002714D01*
X0006Y002638D02*
X00125D01*
X001354*
X001427*
X001432Y000197D02*
X001487Y000236D01*
X001634Y000269D02*
X002146Y000182D01*
X002844Y-00001D02*
D01*
X002146Y000182D02*
X002377D01*
G54D12*
X002461Y004094D02*
D01*
D01*
G75*
G03X002531Y004065I000070J000070D01*
G74*G01*
X002895Y005668D02*
D01*
D01*
G75*
G03X002964Y00564I000067J000068D01*
G74*G01*
X002677Y005886D02*
D01*
D01*
G75*
G03X002606Y005915I-000068J-000067D01*
G74*G01*
X00247Y005925D02*
D01*
D01*
G75*
G03X002513Y005915I000044J000092D01*
G74*G01*
X002638Y002068D02*
D01*
D01*
G75*
G03X002805Y0019I000166J-000001D01*
G74*G01*
X002638Y002215D02*
D01*
D01*
G75*
G03X002609Y002284I-000095J0D01*
G74*G01*
X0035Y005443D02*
D01*
D01*
G75*
G03X00354Y005451I-000001J000110D01*
G74*G01*
X001068Y005759D02*
D01*
D01*
G75*
G03X001079Y005714I000105J000002D01*
G74*G01*
X001112Y005636D02*
D01*
D01*
G75*
G03X001137Y005597I000079J000023D01*
G74*G01*
X001103Y005665D02*
D01*
D01*
G75*
G03X001096Y005682I-000124J-000041D01*
G74*G01*
X002531Y004065D02*
X002689D01*
X002531D02*
D01*
X002441Y004114D02*
X002461Y004094D01*
X002964Y00564D02*
X003031D01*
X002895Y005668D02*
D01*
X002513Y005915D02*
X002606D01*
X002677Y005886D02*
X002895Y005668D01*
X00247Y005925D02*
D01*
X003031Y003081D02*
X003829D01*
X003031Y005443D02*
X0035D01*
X002689Y004065D02*
X003031D01*
X003406Y001506D02*
D01*
X003031D02*
X003406D01*
X00129Y004737D02*
X001298Y004745D01*
X00129Y004737D02*
D01*
X001124Y004571D02*
X00129Y004737D01*
X002638Y002068D02*
Y002215D01*
X003031Y0019D02*
D01*
X002805D02*
X003031D01*
X002529Y002364D02*
X002609Y002284D01*
X003031Y001309D02*
X003711D01*
X003031Y002687D02*
X003829D01*
X00354Y005451D02*
X003543Y005453D01*
X001079Y005714D02*
X001096Y005682D01*
X001103Y005665D02*
X001112Y005636D01*
X001068Y005759D02*
Y005763D01*
X001137Y005597D02*
X001241Y005493D01*
X001298*
X003543Y005453D02*
D01*
X003031Y002884D02*
X003415D01*
X003031Y003671D02*
X003406D01*
X003031Y003278D02*
X003415D01*
X003031Y003474D02*
X003819D01*
X003031Y005049D02*
X003533D01*
X001043Y005787D02*
X001068Y005763D01*
X002504Y002364D02*
X002529D01*
G54D13*
X001758Y006355D02*
D01*
D01*
G75*
G03X001781Y006411I-000054J000055D01*
G74*G01*
X00167Y006299D02*
D01*
D01*
G75*
G03X001726Y006322I-0J000080D01*
G74*G01*
X001854Y008195D02*
D01*
D01*
G75*
G03X001798Y008219I-000057J-000057D01*
G74*G01*
X002136Y007881D02*
D01*
D01*
G75*
G03X002113Y007937I-000080J-0D01*
G74*G01*
X001841Y007192D02*
D01*
D01*
G75*
G03X001817Y007247I-000071J000001D01*
G74*G01*
X001841Y00708D02*
D01*
D01*
G75*
G03X001864Y007024I000080J0D01*
G74*G01*
X001978Y007149D02*
D01*
D01*
G75*
G03X002001Y007093I000080J0D01*
G74*G01*
X001978Y007339D02*
D01*
D01*
G75*
G03X001955Y007395I-000080J-0D01*
G74*G01*
X002585Y006923D02*
D01*
D01*
G75*
G03X002641Y0069I000055J000054D01*
G74*G01*
X002283Y007257D02*
D01*
D01*
G75*
G03X002307Y007201I000075J-0D01*
G74*G01*
X002283Y008185D02*
D01*
D01*
G75*
G03X002261Y008241I-000085J-000001D01*
G74*G01*
X002136Y007198D02*
D01*
D01*
G75*
G03X002159Y007142I000080J0D01*
G74*G01*
X002224Y006631D02*
D01*
D01*
G75*
G03X002201Y006687I-000080J-0D01*
G74*G01*
X002169Y008333D02*
D01*
D01*
G75*
G03X002113Y008356I-000054J-000052D01*
G74*G01*
X002841Y006253D02*
D01*
D01*
G75*
G03X002897Y00623I000055J000054D01*
G74*G01*
X002224Y006625D02*
D01*
D01*
G75*
G03X002247Y006569I000080J0D01*
G74*G01*
X001456Y007642D02*
D01*
D01*
G75*
G03X001479Y007586I000080J0D01*
G74*G01*
X001693Y007094D02*
D01*
D01*
G75*
G03X00167Y007149I-000075J0D01*
G74*G01*
X002087Y006543D02*
D01*
D01*
G75*
G03X002063Y006598I-000071J000001D01*
G74*G01*
X001165Y007686D02*
D01*
D01*
G75*
G03X001188Y007631I000080J000001D01*
G74*G01*
X002208Y00852D02*
D01*
D01*
G75*
G03X002152Y008543I-000054J-000052D01*
G74*G01*
X002431Y008265D02*
D01*
D01*
G75*
G03X002408Y008321I-000080J-0D01*
G74*G01*
X002772Y005476D02*
D01*
D01*
G75*
G03X002828Y005453I000055J000054D01*
G74*G01*
X002465Y005623D02*
D01*
D01*
G75*
G03X002521Y0056I000055J000054D01*
G74*G01*
X002671Y005577D02*
D01*
D01*
G75*
G03X002615Y0056I-000055J-000054D01*
G74*G01*
X00249Y004783D02*
D01*
D01*
G75*
G03X002536Y004806I-000009J000076D01*
G74*G01*
X002615Y004852D02*
D01*
D01*
G75*
G03X002559Y004829I000002J-000085D01*
G74*G01*
X001693Y007001D02*
D01*
D01*
G75*
G03X001716Y006945I000085J000002D01*
G74*G01*
X002182Y006332D02*
D01*
D01*
G75*
G03X002237Y006309I000055J000054D01*
G74*G01*
X002539Y00532D02*
D01*
D01*
G75*
G03X002588Y005304I000044J000054D01*
G74*G01*
X002732Y00528D02*
D01*
D01*
G75*
G03X002675Y005304I-000057J-000057D01*
G74*G01*
X002743Y005269D02*
D01*
D01*
G75*
G03X002798Y005246I000055J000054D01*
G74*G01*
X002047Y004488D02*
D01*
D01*
G75*
G03X002063Y004536I-000066J000048D01*
G74*G01*
X002523Y003816D02*
D01*
D01*
G75*
G03X002467Y003839I-000055J-000054D01*
G74*G01*
X001872Y003917D02*
D01*
D01*
G75*
G03X001951Y003839I000077J-0D01*
G74*G01*
X002431Y007336D02*
D01*
D01*
G75*
G03X002454Y00728I000080J0D01*
G74*G01*
X002575Y007159D02*
D01*
D01*
G75*
G03X002631Y007136I000055J000054D01*
G74*G01*
X002087Y00646D02*
D01*
D01*
G75*
G03X00211Y006404I000080J0D01*
G74*G01*
X000945Y006473D02*
D01*
D01*
G75*
G03X000922Y006529I-000080J-0D01*
G74*G01*
X0006Y006883D02*
D01*
D01*
G75*
G03X000623Y006827I000080J0D01*
G74*G01*
X001485Y007025D02*
D01*
D01*
G75*
G03X001459Y007098I-000113J0D01*
G74*G01*
D01*
D01*
G75*
G03X00134Y007156I-000122J-000100D01*
G74*G01*
X003484Y0044D02*
Y004665D01*
X003327Y004242D02*
X003484Y0044D01*
X003051Y004242D02*
X003327D01*
X003031Y004262D02*
X003051Y004242D01*
X002461Y003278D02*
X002677D01*
X002687Y003287*
Y002598D02*
Y003287D01*
Y002598D02*
X002795Y00249D01*
X003031*
X001758Y006355D02*
D01*
X001726Y006322D02*
X001758Y006355D01*
X001514Y006299D02*
X00167D01*
X00187Y002746D02*
X00202D01*
X002115Y002825D02*
X002421D01*
X00202Y002746D02*
X002099Y002825D01*
X002115*
X002126Y003583D02*
X002154D01*
X002136Y007198D02*
Y007881D01*
X001624Y008219D02*
X001798D01*
X001854Y008195D02*
X002113Y007937D01*
X001864Y007024D02*
X002185Y006703D01*
X001479Y007586D02*
X001817Y007247D01*
X001841Y00708D02*
Y007192D01*
X001713Y007638D02*
X001955Y007395D01*
X002001Y007093D02*
X002841Y006253D01*
X001978Y007149D02*
Y007339D01*
X001713Y007638D02*
Y008031D01*
X002159Y007142D02*
X002713Y006588D01*
X001762Y008356D02*
X002113D01*
X002307Y007201D02*
X002585Y006923D01*
X002713Y006588D02*
X002825Y006476D01*
X002307Y007201D02*
D01*
X002169Y008333D02*
X00226Y008242D01*
X002283Y008185D02*
Y007257D01*
X002224Y006631D02*
D01*
Y006625D02*
Y006631D01*
X002897Y00623D02*
X003031D01*
X001456Y007642D02*
Y008013D01*
X002247Y006569D02*
X002313Y006504D01*
X001693Y007094D02*
Y007093D01*
Y007001D02*
Y007093D01*
X001188Y007631D02*
X00167Y007149D01*
X001165Y007686D02*
Y008028D01*
X002431Y007336D02*
Y008265D01*
X00185Y008543D02*
X002152D01*
X002208Y00852D02*
X002408Y008321D01*
X002828Y005453D02*
X002943D01*
X002828D02*
D01*
X002521Y0056D02*
X002615D01*
X002671Y005577D02*
X002772Y005476D01*
X002451Y005638D02*
X002465Y005623D01*
X002615Y004852D02*
D01*
X003031*
X00249Y004783D02*
D01*
X002536Y004806D02*
X002559Y004829D01*
X002825Y006476D02*
X002972D01*
X003031Y00623D02*
X003209Y006407D01*
X002237Y006309D02*
X002546D01*
X001716Y006945D02*
X002063Y006598D01*
X002087Y00646D02*
Y006542D01*
Y006543D02*
Y006542D01*
X00211Y006404D02*
X002182Y006332D01*
X002732Y00528D02*
X002743Y005269D01*
X002539Y00532D02*
D01*
X002588Y005304D02*
X002675D01*
X002798Y005246D02*
X003031D01*
X00249Y005049D02*
X003031D01*
X00248Y005059D02*
X00249Y005049D01*
X002569Y003522D02*
Y00377D01*
X002047Y004488D02*
D01*
X001872Y003917D02*
Y004134D01*
X001959Y004222D02*
Y004488D01*
X00187Y004134D02*
X001959Y004222D01*
X002461Y004459D02*
X003031D01*
X002451Y004449D02*
X002461Y004459D01*
X002523Y003816D02*
X002569Y00377D01*
X001951Y003839D02*
X002467D01*
X002293Y003632D02*
X002323Y003661D01*
X002106Y003583D02*
X002126D01*
X002203Y003632D02*
X002293D01*
X002154Y003583D02*
X002203Y003632D01*
X002421Y003375D02*
X002569Y003522D01*
X002063Y004536D02*
Y005863D01*
X002454Y00728D02*
X002575Y007159D01*
X00226Y008242D02*
X002261Y008241D01*
X002631Y007136D02*
X002854D01*
X002631D02*
D01*
X002641Y0069D02*
X002785D01*
X002313Y006496D02*
Y006504D01*
X001437Y008031D02*
X001456Y008013D01*
X001161Y008031D02*
X001165Y008028D01*
X000623Y006827D02*
X000922Y006529D01*
X0006Y006883D02*
Y007087D01*
X000945Y006457D02*
Y006473D01*
Y006378D02*
Y006457D01*
X001357*
X001485Y007025D02*
Y007024D01*
X001459Y007098D02*
D01*
X001339Y007156D02*
X00134D01*
X001485Y007024D02*
Y006821D01*
X001289Y007156D02*
X001339D01*
X001781Y006411D02*
Y006486D01*
X001575Y008543D02*
X001762Y008356D01*
X001299Y008543D02*
X001624Y008219D01*
X001514Y006457D02*
Y006791D01*
G54D14*
X002087Y003327D02*
D01*
D01*
G75*
G03X002126Y003423I-000096J000095D01*
G74*G01*
X002086Y003326D02*
D01*
D01*
G75*
G02X002087Y003327I000097J-000096D01*
G74*G01*
X000572Y004115D02*
D01*
D01*
G75*
G03X000531Y004018I000101J-000100D01*
G74*G01*
Y003437D02*
D01*
D01*
G75*
G03X000541Y003386I000132J-0D01*
G74*G01*
X00129Y004737D02*
D01*
D01*
G75*
G03X00125Y00464I000098J-000097D01*
G74*G01*
X002087Y003327D02*
D01*
X001978D02*
X002087D01*
X001959D02*
X001978D01*
X002086Y003326D02*
X002087Y003327D01*
X002126Y003423D02*
Y003583D01*
X000541Y003386D02*
D01*
X000531Y003437D02*
Y004018D01*
X000572Y004115D02*
X00062Y004163D01*
G54D15*
X00129Y004737D03*
G54D16*
X003396Y-000039D03*
X002846D03*
X00187Y004134D03*
X00242D03*
G54D17*
X002504Y002364D03*
X002101D03*
X001081Y006821D03*
X001485D03*
X002451Y004488D03*
X002047D03*
X002451Y004776D03*
X002047D03*
Y005063D03*
X002451D03*
Y00535D03*
X002047D03*
Y005638D03*
X002451D03*
Y005925D03*
X002047D03*
G54D18*
X000541Y002638D03*
X000565Y004571D03*
X001298Y005493D03*
G54D19*
X000541Y003386D03*
X000565Y005319D03*
X001298Y004745D03*
G54D20*
X001132Y002982D03*
X001978Y002707D03*
Y003258D03*
G54D21*
X002421Y002736D03*
Y003286D03*
G54D22*
X002569Y003661D03*
X002323D03*
X000699Y006378D03*
X000945D03*
G54D23*
X00125Y004075D03*
Y003671D03*
G54D24*
X001357Y006457D03*
Y006299D03*
X001514Y006457D03*
Y006299D03*
G54D25*
X003031Y003868D03*
Y004262D03*
Y004065D03*
Y005443D03*
Y00564D03*
Y005049D03*
Y005246D03*
Y004852D03*
Y004656D03*
Y004459D03*
Y00249D03*
Y002687D03*
Y002884D03*
Y003278D03*
Y003081D03*
Y003671D03*
Y003474D03*
Y002096D03*
Y002293D03*
Y001703D03*
Y001506D03*
Y001309D03*
Y001112D03*
G54D26*
X003031Y0019D03*
G54D27*
X004321Y000413D03*
Y006339D03*
G54D28*
X001432Y001811D03*
Y000197D03*
G54D29*
X00125Y00293D02*
Y00347D01*
X001431Y002677D02*
X001437D01*
X00125Y002697D02*
Y00293D01*
Y002929D02*
Y00293D01*
Y00347D02*
Y003671D01*
G54D30*
X003819Y003474D02*
X003829Y003484D01*
X003711Y001309D02*
D01*
X003406Y003671D02*
D01*
X003415Y003278D02*
D01*
X003031Y005049D02*
D01*
X001485Y006821D02*
X001514Y006791D01*
G54D31*
X00125Y004075D02*
Y00464D01*
X000565Y004571D02*
X001124D01*
G54D32*
X001432Y001896D02*
Y002638D01*
G54D33*
X002785Y0069D03*
X003209Y006407D03*
X00252Y006309D03*
X001437Y002677D03*
X00123Y006073D03*
X003406Y001506D03*
X000984Y002303D03*
X001821Y001004D03*
X001033D03*
X000374Y006083D03*
X000846Y006073D03*
X003524Y006693D03*
X003494Y004665D03*
X000335Y006713D03*
X004429Y001959D03*
X004456Y00136D03*
X002377Y000182D03*
X002146D03*
X003711Y001309D03*
X003652Y004301D03*
X002313Y006496D03*
X000522Y007953D03*
X0006Y007087D03*
X001713Y008031D03*
X001781Y006486D03*
X002963Y006467D03*
X00185Y008543D03*
X001437Y008031D03*
X002854Y007136D03*
X00062Y004163D03*
X001575Y008543D03*
X002115Y002825D03*
X002132Y003587D03*
X001299Y008543D03*
X001161Y008031D03*
X001289Y007156D03*
X003829Y003474D03*
Y002697D03*
X003415Y002884D03*
X003829Y003091D03*
X003415Y003278D03*
X003406Y003671D03*
X00354Y005451D03*
X003533Y005049D03*
X001043Y005787D03*
M02*