%FSTAX24Y24*%
%MOIN*%
%SFA1B1*%

%IPPOS*%
%AMD29*
4,1,8,-0.017700,0.008100,-0.017700,-0.008100,-0.015000,-0.010800,0.015000,-0.010800,0.017700,-0.008100,0.017700,0.008100,0.015000,0.010800,-0.015000,0.010800,-0.017700,0.008100,0.0*
1,1,0.005400,-0.015000,0.008100*
1,1,0.005400,-0.015000,-0.008100*
1,1,0.005400,0.015000,-0.008100*
1,1,0.005400,0.015000,0.008100*
%
%AMD34*
4,1,8,-0.022600,0.002900,-0.022600,-0.002900,-0.019600,-0.005900,0.019600,-0.005900,0.022600,-0.002900,0.022600,0.002900,0.019600,0.005900,-0.019600,0.005900,-0.022600,0.002900,0.0*
1,1,0.006000,-0.019600,0.002900*
1,1,0.006000,-0.019600,-0.002900*
1,1,0.006000,0.019600,-0.002900*
1,1,0.006000,0.019600,0.002900*
%
%AMD35*
4,1,8,-0.024600,0.002900,-0.024600,-0.002900,-0.021600,-0.005900,0.021600,-0.005900,0.024600,-0.002900,0.024600,0.002900,0.021600,0.005900,-0.021600,0.005900,-0.024600,0.002900,0.0*
1,1,0.006000,-0.021600,0.002900*
1,1,0.006000,-0.021600,-0.002900*
1,1,0.006000,0.021600,-0.002900*
1,1,0.006000,0.021600,0.002900*
%
%ADD25R,0.030000X0.030000*%
%ADD26R,0.025000X0.020000*%
%ADD27R,0.043300X0.031500*%
%ADD28R,0.043300X0.078700*%
G04~CAMADD=29~8~0.0~0.0~217.0~354.0~27.0~0.0~15~0.0~0.0~0.0~0.0~0~0.0~0.0~0.0~0.0~0~0.0~0.0~0.0~90.0~354.0~216.0*
%ADD29D29*%
%ADD30R,0.030000X0.030000*%
%ADD31R,0.015700X0.013800*%
%ADD32R,0.020000X0.025000*%
%ADD33C,0.009100*%
G04~CAMADD=34~8~0.0~0.0~118.0~453.0~30.0~0.0~15~0.0~0.0~0.0~0.0~0~0.0~0.0~0.0~0.0~0~0.0~0.0~0.0~90.0~452.0~118.0*
%ADD34D34*%
G04~CAMADD=35~8~0.0~0.0~118.0~492.0~30.0~0.0~15~0.0~0.0~0.0~0.0~0~0.0~0.0~0.0~0.0~0~0.0~0.0~0.0~90.0~492.0~118.0*
%ADD35D35*%
%ADD36R,0.078700X0.059100*%
%ADD37R,0.019700X0.019700*%
%LNpaste_b-1*%
%LPD*%
%SRX1Y1I0J0*%
G36*
X000845Y000761D02*
X000879Y000714D01*
X000959Y00063*
X00105Y00056*
X001153Y000505*
X001262Y000468*
X001376Y000449*
X001492*
X001606Y000468*
X001716Y000505*
X001818Y00056*
X001909Y00063*
X001989Y000714*
X002023Y000761*
X002274*
Y000073*
X000591*
Y000761*
X000845*
G37*
G36*
X002274Y001257D02*
X002016D01*
X001982Y001303*
X001903Y001387*
X001811Y001457*
X001709Y001511*
X0016Y001548*
X001486Y001566*
X001371*
X001258Y001548*
X001148Y001511*
X001047Y001457*
X000955Y001387*
X000876Y001303*
X000842Y001257*
X000581*
Y001943*
X002274*
Y001257*
G37*
G54D25*
X003396Y-000039D03*
X002846D03*
X00187Y004134D03*
X00242D03*
G54D26*
X002504Y002364D03*
X002101D03*
X001081Y006821D03*
X001485D03*
X002451Y004488D03*
X002047D03*
X002451Y004776D03*
X002047D03*
Y005063D03*
X002451D03*
Y00535D03*
X002047D03*
Y005638D03*
X002451D03*
Y005925D03*
X002047D03*
G54D27*
X000541Y002638D03*
X000565Y004571D03*
X001298Y005493D03*
G54D28*
X000541Y003386D03*
X000565Y005319D03*
X001298Y004745D03*
G54D29*
X001132Y002982D03*
X001978Y002707D03*
Y003258D03*
G54D30*
X002421Y002736D03*
Y003286D03*
G54D31*
X002569Y003661D03*
X002323D03*
X000699Y006378D03*
X000945D03*
G54D32*
X00125Y004075D03*
Y003671D03*
G54D33*
X001357Y006457D03*
Y006299D03*
X001514Y006457D03*
Y006299D03*
G54D34*
X003031Y003868D03*
Y004262D03*
Y004065D03*
Y005443D03*
Y00564D03*
Y005049D03*
Y005246D03*
Y004852D03*
Y004656D03*
Y004459D03*
Y00249D03*
Y002687D03*
Y002884D03*
Y003278D03*
Y003081D03*
Y003671D03*
Y003474D03*
Y002096D03*
Y002293D03*
Y001703D03*
Y001506D03*
Y001309D03*
Y001112D03*
G54D35*
X003031Y0019D03*
G54D36*
X004321Y000413D03*
Y006339D03*
G54D37*
X001432Y001811D03*
Y000197D03*
M02*