G04*
G04 #@! TF.GenerationSoftware,Altium Limited,Altium Designer,21.6.1 (37)*
G04*
G04 Layer_Physical_Order=2*
G04 Layer_Color=16711680*
%FSLAX24Y24*%
%MOIN*%
G70*
G04*
G04 #@! TF.SameCoordinates,37154726-0036-40AC-91F7-CF04DCFBAF74*
G04*
G04*
G04 #@! TF.FilePolarity,Positive*
G04*
G01*
G75*
%ADD10C,0.0118*%
%ADD11C,0.0197*%
%ADD12C,0.0098*%
%ADD13C,0.0079*%
%ADD14C,0.0138*%
%ADD15C,0.0138*%
%ADD16R,0.0300X0.0300*%
%ADD17R,0.0250X0.0200*%
%ADD18R,0.0433X0.0315*%
%ADD19R,0.0433X0.0787*%
G04:AMPARAMS|DCode=20|XSize=21.7mil|YSize=35.4mil|CornerRadius=2.7mil|HoleSize=0mil|Usage=FLASHONLY|Rotation=90.000|XOffset=0mil|YOffset=0mil|HoleType=Round|Shape=RoundedRectangle|*
%AMROUNDEDRECTD20*
21,1,0.0217,0.0300,0,0,90.0*
21,1,0.0162,0.0354,0,0,90.0*
1,1,0.0054,0.0150,0.0081*
1,1,0.0054,0.0150,-0.0081*
1,1,0.0054,-0.0150,-0.0081*
1,1,0.0054,-0.0150,0.0081*
%
%ADD20ROUNDEDRECTD20*%
%ADD21R,0.0300X0.0300*%
%ADD22R,0.0157X0.0138*%
%ADD23R,0.0200X0.0250*%
%ADD24C,0.0091*%
G04:AMPARAMS|DCode=25|XSize=11.8mil|YSize=45.3mil|CornerRadius=3mil|HoleSize=0mil|Usage=FLASHONLY|Rotation=90.000|XOffset=0mil|YOffset=0mil|HoleType=Round|Shape=RoundedRectangle|*
%AMROUNDEDRECTD25*
21,1,0.0118,0.0394,0,0,90.0*
21,1,0.0059,0.0453,0,0,90.0*
1,1,0.0059,0.0197,0.0030*
1,1,0.0059,0.0197,-0.0030*
1,1,0.0059,-0.0197,-0.0030*
1,1,0.0059,-0.0197,0.0030*
%
%ADD25ROUNDEDRECTD25*%
G04:AMPARAMS|DCode=26|XSize=11.8mil|YSize=49.2mil|CornerRadius=3mil|HoleSize=0mil|Usage=FLASHONLY|Rotation=90.000|XOffset=0mil|YOffset=0mil|HoleType=Round|Shape=RoundedRectangle|*
%AMROUNDEDRECTD26*
21,1,0.0118,0.0433,0,0,90.0*
21,1,0.0059,0.0492,0,0,90.0*
1,1,0.0059,0.0217,0.0030*
1,1,0.0059,0.0217,-0.0030*
1,1,0.0059,-0.0217,-0.0030*
1,1,0.0059,-0.0217,0.0030*
%
%ADD26ROUNDEDRECTD26*%
%ADD27R,0.0787X0.0591*%
%ADD28R,0.0197X0.0197*%
%ADD29C,0.0157*%
%ADD30C,0.0049*%
%ADD31C,0.0177*%
%ADD32C,0.0276*%
%ADD33C,0.0177*%
G36*
X1116Y8640D02*
X1155Y8577D01*
X1149Y8543D01*
X1160Y8486D01*
X1193Y8437D01*
X1242Y8404D01*
X1299Y8393D01*
X1306Y8394D01*
X1459Y8242D01*
X1445Y8203D01*
X1431Y8181D01*
X1379Y8171D01*
X1340Y8144D01*
X1309Y8138D01*
X1289D01*
X1259Y8144D01*
X1219Y8171D01*
X1161Y8182D01*
X1104Y8171D01*
X1055Y8138D01*
X1022Y8089D01*
X1011Y8031D01*
X1022Y7974D01*
X1055Y7925D01*
X1064Y7919D01*
Y7686D01*
X1064Y7685D01*
X1063Y7685D01*
X1077Y7618D01*
X1116Y7559D01*
X1117Y7560D01*
X1311Y7366D01*
X1297Y7327D01*
X1283Y7305D01*
X1232Y7295D01*
X1183Y7262D01*
X1150Y7213D01*
X1139Y7156D01*
X1150Y7098D01*
X1174Y7063D01*
X1158Y7015D01*
X1146Y7000D01*
X1131D01*
Y6821D01*
X1031D01*
Y7000D01*
X877D01*
Y6798D01*
X819Y6774D01*
X703Y6890D01*
X701Y6895D01*
Y6976D01*
X707Y6980D01*
X739Y7029D01*
X751Y7087D01*
X739Y7144D01*
X707Y7193D01*
X658Y7226D01*
X600Y7237D01*
X543Y7226D01*
X494Y7193D01*
X461Y7144D01*
X450Y7087D01*
X461Y7029D01*
X494Y6980D01*
X500Y6976D01*
Y6883D01*
X498D01*
X512Y6814D01*
X551Y6755D01*
X553Y6756D01*
X725Y6584D01*
X701Y6526D01*
X541D01*
Y6428D01*
X699D01*
Y6378D01*
X749D01*
Y6230D01*
X856D01*
Y6250D01*
X1083D01*
Y6356D01*
X1177D01*
X1230Y6299D01*
X1240Y6251D01*
X1267Y6210D01*
X1307Y6183D01*
Y6299D01*
X1407D01*
Y6183D01*
X1446Y6210D01*
X1450Y6216D01*
X1473Y6201D01*
X1514Y6193D01*
X1544Y6199D01*
X1670D01*
Y6197D01*
X1739Y6211D01*
X1798Y6250D01*
X1798Y6250D01*
X1814Y6267D01*
X1830Y6283D01*
X1830Y6283D01*
X1870Y6341D01*
X1876Y6372D01*
X1888Y6380D01*
X1921Y6429D01*
X1924Y6444D01*
X1988D01*
X1998Y6391D01*
X2038Y6332D01*
X2038Y6332D01*
X2040Y6332D01*
X2111Y6261D01*
X2111Y6261D01*
X2110Y6260D01*
X2168Y6221D01*
X2237Y6207D01*
Y6209D01*
X2409D01*
X2413Y6203D01*
X2462Y6170D01*
X2520Y6159D01*
X2577Y6170D01*
X2626Y6203D01*
X2640Y6223D01*
X2715Y6237D01*
X2770Y6182D01*
X2769Y6181D01*
X2828Y6142D01*
X2897Y6128D01*
Y6130D01*
X3031D01*
X3070Y6138D01*
X3102Y6159D01*
X3201Y6258D01*
X3209Y6257D01*
X3266Y6268D01*
X3315Y6301D01*
X3348Y6350D01*
X3359Y6407D01*
X3348Y6465D01*
X3315Y6514D01*
X3266Y6547D01*
X3209Y6558D01*
X3151Y6547D01*
X3111Y6520D01*
X3102Y6524D01*
X3069Y6573D01*
X3020Y6606D01*
X2963Y6617D01*
X2905Y6606D01*
X2865Y6579D01*
X2784Y6659D01*
X2784Y6659D01*
X2752Y6692D01*
X2783Y6750D01*
X2785Y6749D01*
X2843Y6761D01*
X2892Y6793D01*
X2925Y6842D01*
X2936Y6900D01*
X2925Y6957D01*
X2943Y7017D01*
X2961Y7029D01*
X2993Y7078D01*
X3005Y7136D01*
X2993Y7193D01*
X2983Y7209D01*
X3017Y7272D01*
X4719D01*
X4755Y7257D01*
X4782Y7230D01*
X4797Y7194D01*
Y6774D01*
X4793Y6713D01*
X4734Y6713D01*
X4371D01*
Y6339D01*
Y5965D01*
X4734D01*
X4793Y5965D01*
X4797Y5903D01*
Y849D01*
X4793Y787D01*
X4734Y787D01*
X4371D01*
Y413D01*
Y39D01*
X4734D01*
X4793Y39D01*
X4797Y-22D01*
Y-220D01*
X4782Y-256D01*
X4755Y-283D01*
X4726Y-295D01*
X4717Y-294D01*
X4711Y-295D01*
X4705Y-293D01*
X3677D01*
X3624Y-268D01*
X3624Y-230D01*
Y-89D01*
X3396D01*
X3167D01*
Y-230D01*
X3167Y-268D01*
X3114Y-293D01*
X3098D01*
X3055Y-248D01*
X3055Y-230D01*
Y170D01*
X2850D01*
X2806Y188D01*
X2714Y200D01*
X2714Y200D01*
X2694D01*
X2635Y210D01*
X2635Y210D01*
X2561Y267D01*
X2539Y276D01*
X2535Y279D01*
X2525Y285D01*
X2484Y305D01*
X2446Y326D01*
X2443Y327D01*
X2438Y330D01*
X2427Y332D01*
X2411Y335D01*
X2385Y342D01*
X2338Y383D01*
Y761D01*
X2319Y806D01*
X2274Y825D01*
X2023Y825D01*
X2018Y823D01*
X2013Y824D01*
X2004Y819D01*
X1994Y818D01*
X1987Y810D01*
X1978Y806D01*
X1976Y801D01*
X1971Y799D01*
X1939Y755D01*
X1866Y677D01*
X1783Y614D01*
X1690Y564D01*
X1590Y530D01*
X1487Y513D01*
X1381Y513D01*
X1278Y530D01*
X1178Y564D01*
X1085Y614D01*
X1002Y677D01*
X929Y755D01*
X897Y799D01*
X893Y801D01*
X891Y806D01*
X872Y814D01*
X855Y824D01*
X850Y823D01*
X845Y825D01*
X591Y825D01*
X545Y806D01*
X527Y761D01*
Y73D01*
X545Y28D01*
X591Y9D01*
X2274D01*
X2303Y21D01*
X2334D01*
X2341Y18D01*
X2344Y16D01*
X2354Y9D01*
X2355Y9D01*
X2395Y-11D01*
X2396Y-11D01*
X2408Y-17D01*
X2409Y-18D01*
X2482Y-73D01*
X2568Y-109D01*
X2637Y-118D01*
Y-230D01*
X2637Y-248D01*
X2593Y-293D01*
X276D01*
X241Y-279D01*
X213Y-252D01*
X199Y-216D01*
Y-197D01*
Y8543D01*
Y8562D01*
X213Y8598D01*
X241Y8625D01*
X276Y8640D01*
X295D01*
X1116D01*
D02*
G37*
G36*
X845Y761D02*
X879Y714D01*
X959Y630D01*
X1050Y560D01*
X1153Y505D01*
X1262Y468D01*
X1376Y449D01*
X1492Y449D01*
X1606Y468D01*
X1716Y505D01*
X1818Y560D01*
X1909Y630D01*
X1989Y714D01*
X2023Y761D01*
X2023Y761D01*
X2274Y761D01*
Y73D01*
X591D01*
Y761D01*
X845Y761D01*
D02*
G37*
%LPC*%
G36*
X4271Y6713D02*
X3848D01*
Y6389D01*
X4271D01*
Y6713D01*
D02*
G37*
G36*
X649Y6328D02*
X541D01*
Y6230D01*
X649D01*
Y6328D01*
D02*
G37*
G36*
X1997Y6104D02*
X1843D01*
Y5975D01*
X1997D01*
Y6104D01*
D02*
G37*
G36*
X4271Y6289D02*
X3848D01*
Y5965D01*
X4271D01*
Y6289D01*
D02*
G37*
G36*
X515Y5792D02*
X270D01*
Y5369D01*
X515D01*
Y5792D01*
D02*
G37*
G36*
X2251Y6104D02*
Y6104D01*
X2097D01*
Y5925D01*
X2047D01*
Y5875D01*
X1843D01*
Y5746D01*
Y5688D01*
X2047D01*
Y5588D01*
X1843D01*
Y5459D01*
Y5400D01*
X2047D01*
Y5300D01*
X1843D01*
Y5172D01*
Y5113D01*
X2047D01*
Y5013D01*
X1843D01*
Y4884D01*
Y4826D01*
X2047D01*
Y4726D01*
X1843D01*
Y4597D01*
Y4538D01*
X2047D01*
Y4438D01*
X1843D01*
Y4363D01*
X1641D01*
Y4184D01*
X2099D01*
Y4309D01*
X2202D01*
X2211Y4309D01*
X2211Y4296D01*
Y3925D01*
X2629D01*
Y3955D01*
X2696D01*
X2744Y3898D01*
Y3865D01*
X2734Y3834D01*
X2686Y3809D01*
X2619D01*
Y3661D01*
X2519D01*
Y3809D01*
X2411D01*
Y3789D01*
X2185D01*
Y3789D01*
X2132Y3737D01*
X2074Y3726D01*
X2025Y3693D01*
X1993Y3645D01*
X1981Y3587D01*
X1993Y3529D01*
X1996Y3525D01*
Y3513D01*
X1978Y3457D01*
X1959D01*
X1909Y3447D01*
X1878Y3427D01*
X1828D01*
X1795Y3420D01*
X1766Y3401D01*
X1747Y3373D01*
X1740Y3339D01*
Y3177D01*
X1747Y3143D01*
X1766Y3115D01*
X1795Y3096D01*
X1828Y3089D01*
X2128D01*
X2130Y3089D01*
X2193Y3057D01*
Y3057D01*
X2371D01*
Y3286D01*
X2421D01*
Y3336D01*
X2650D01*
Y3466D01*
X2671Y3480D01*
X2738Y3460D01*
X2744Y3454D01*
Y3445D01*
X2751Y3410D01*
X2771Y3381D01*
Y3371D01*
X2751Y3342D01*
X2744Y3307D01*
Y3248D01*
X2751Y3213D01*
X2771Y3184D01*
Y3174D01*
X2751Y3145D01*
X2744Y3110D01*
Y3051D01*
X2751Y3017D01*
X2771Y2987D01*
Y2977D01*
X2751Y2948D01*
X2744Y2913D01*
Y2854D01*
X2751Y2820D01*
X2771Y2790D01*
Y2780D01*
X2751Y2751D01*
X2744Y2717D01*
Y2657D01*
X2751Y2623D01*
X2759Y2611D01*
X2757Y2598D01*
X2733Y2562D01*
X2688Y2523D01*
X2630Y2537D01*
X2630Y2586D01*
Y2945D01*
X2212D01*
X2212Y2945D01*
X2184Y2957D01*
X2173Y2964D01*
X2115Y2975D01*
X2058Y2964D01*
X2009Y2931D01*
X1976Y2882D01*
X1975Y2876D01*
X1828D01*
X1795Y2869D01*
X1766Y2850D01*
X1747Y2822D01*
X1740Y2788D01*
Y2625D01*
X1747Y2592D01*
X1766Y2563D01*
X1795Y2544D01*
X1828Y2538D01*
X1897D01*
Y2414D01*
X2101D01*
Y2364D01*
X2151D01*
Y2185D01*
X2304D01*
X2359Y2205D01*
X2464D01*
X2527Y2142D01*
Y2131D01*
X2527Y2068D01*
X2527Y2067D01*
X2537Y1995D01*
X2564Y1928D01*
X2609Y1870D01*
X2666Y1826D01*
X2704Y1810D01*
X2736Y1781D01*
X2745Y1733D01*
X2744Y1732D01*
Y1673D01*
X2751Y1639D01*
X2771Y1609D01*
Y1599D01*
X2751Y1570D01*
X2744Y1535D01*
Y1476D01*
X2751Y1442D01*
X2771Y1413D01*
Y1402D01*
X2751Y1373D01*
X2744Y1339D01*
Y1280D01*
X2751Y1245D01*
X2771Y1216D01*
Y1206D01*
X2751Y1176D01*
X2744Y1142D01*
Y1083D01*
X2751Y1048D01*
X2771Y1019D01*
X2800Y999D01*
X2835Y992D01*
X3228D01*
X3263Y999D01*
X3292Y1019D01*
X3312Y1048D01*
X3319Y1083D01*
Y1142D01*
X3367Y1199D01*
X3610D01*
X3653Y1170D01*
X3711Y1159D01*
X3768Y1170D01*
X3817Y1203D01*
X3850Y1251D01*
X3861Y1309D01*
X3850Y1367D01*
X3817Y1415D01*
X3768Y1448D01*
X3711Y1460D01*
X3653Y1448D01*
X3610Y1419D01*
X3595D01*
X3551Y1482D01*
X3556Y1506D01*
X3545Y1564D01*
X3512Y1612D01*
X3463Y1645D01*
X3406Y1656D01*
X3378Y1651D01*
X3364Y1656D01*
X3322Y1693D01*
X3319Y1699D01*
Y1732D01*
X3312Y1767D01*
X3294Y1794D01*
X3312Y1806D01*
X3331Y1836D01*
X3338Y1870D01*
Y1929D01*
X3331Y1964D01*
X3312Y1993D01*
X3294Y2005D01*
X3312Y2032D01*
X3319Y2067D01*
Y2126D01*
X3312Y2161D01*
X3292Y2190D01*
Y2200D01*
X3312Y2229D01*
X3319Y2264D01*
Y2323D01*
X3312Y2357D01*
X3304Y2369D01*
X3306Y2383D01*
X3330Y2418D01*
X3335Y2440D01*
X3031D01*
Y2540D01*
X3357D01*
X3391Y2577D01*
X3743D01*
X3771Y2558D01*
X3829Y2546D01*
X3886Y2558D01*
X3935Y2590D01*
X3968Y2639D01*
X3979Y2697D01*
X3968Y2754D01*
X3935Y2803D01*
X3886Y2836D01*
X3829Y2847D01*
X3771Y2836D01*
X3722Y2803D01*
X3718Y2797D01*
X3605D01*
X3561Y2860D01*
X3566Y2884D01*
X3561Y2907D01*
X3605Y2970D01*
X3743D01*
X3771Y2951D01*
X3829Y2940D01*
X3886Y2951D01*
X3935Y2984D01*
X3968Y3033D01*
X3979Y3091D01*
X3968Y3148D01*
X3935Y3197D01*
X3886Y3230D01*
X3829Y3241D01*
X3771Y3230D01*
X3722Y3197D01*
X3718Y3191D01*
X3605D01*
X3561Y3254D01*
X3566Y3278D01*
X3561Y3301D01*
X3605Y3364D01*
X3728D01*
X3771Y3335D01*
X3829Y3324D01*
X3886Y3335D01*
X3935Y3368D01*
X3968Y3417D01*
X3979Y3474D01*
X3968Y3532D01*
X3935Y3581D01*
X3886Y3613D01*
X3829Y3625D01*
X3771Y3613D01*
X3728Y3585D01*
X3595D01*
X3551Y3648D01*
X3556Y3671D01*
X3545Y3729D01*
X3519Y3768D01*
X3526Y3828D01*
X3552Y3867D01*
X3562Y3914D01*
Y4041D01*
X3676Y4156D01*
X3709Y4162D01*
X3758Y4195D01*
X3791Y4244D01*
X3802Y4301D01*
X3791Y4359D01*
X3758Y4408D01*
X3709Y4440D01*
X3652Y4452D01*
X3594Y4440D01*
X3545Y4408D01*
X3512Y4359D01*
X3506Y4326D01*
X3400Y4220D01*
X3376Y4225D01*
X3339Y4248D01*
Y4291D01*
X3330Y4334D01*
X3306Y4369D01*
X3304Y4383D01*
X3312Y4395D01*
X3319Y4429D01*
Y4488D01*
X3312Y4523D01*
X3292Y4552D01*
Y4562D01*
X3312Y4591D01*
X3319Y4626D01*
Y4685D01*
X3312Y4720D01*
X3292Y4749D01*
Y4759D01*
X3312Y4788D01*
X3319Y4823D01*
Y4882D01*
X3367Y4939D01*
X3433D01*
X3476Y4910D01*
X3533Y4899D01*
X3591Y4910D01*
X3640Y4943D01*
X3673Y4992D01*
X3684Y5049D01*
X3673Y5107D01*
X3640Y5156D01*
X3591Y5188D01*
X3533Y5200D01*
X3476Y5188D01*
X3433Y5160D01*
X3367D01*
X3319Y5217D01*
Y5276D01*
X3367Y5333D01*
X3452D01*
X3482Y5312D01*
X3540Y5301D01*
X3598Y5312D01*
X3646Y5345D01*
X3679Y5394D01*
X3690Y5451D01*
X3679Y5509D01*
X3646Y5558D01*
X3598Y5590D01*
X3540Y5602D01*
X3482Y5590D01*
X3433Y5558D01*
X3431Y5553D01*
X3367D01*
X3319Y5610D01*
Y5669D01*
X3312Y5704D01*
X3292Y5733D01*
X3263Y5753D01*
X3228Y5760D01*
X2959D01*
X2799Y5920D01*
X2757Y5965D01*
X2756Y5966D01*
X2688Y6012D01*
X2635Y6022D01*
Y6084D01*
X2306D01*
X2251Y6104D01*
X2251Y6104D01*
D02*
G37*
G36*
X1043Y5938D02*
X986Y5926D01*
X937Y5894D01*
X904Y5845D01*
X903Y5837D01*
X861Y5792D01*
X833Y5792D01*
X615D01*
Y5369D01*
X861D01*
Y5682D01*
X924Y5701D01*
X937Y5681D01*
X952Y5671D01*
X995Y5631D01*
X1012Y5586D01*
X1022Y5570D01*
Y5276D01*
X1573D01*
Y5709D01*
X1230D01*
X1189Y5766D01*
X1194Y5787D01*
X1182Y5845D01*
X1150Y5894D01*
X1101Y5926D01*
X1043Y5938D01*
D02*
G37*
G36*
X2099Y4084D02*
X1920D01*
Y3905D01*
X2099D01*
Y4084D01*
D02*
G37*
G36*
X1820D02*
X1641D01*
Y3905D01*
X1820D01*
Y4084D01*
D02*
G37*
G36*
X2650Y3236D02*
X2471D01*
Y3057D01*
X2650D01*
Y3236D01*
D02*
G37*
G36*
X861Y5269D02*
X565D01*
X270D01*
Y4847D01*
X280D01*
X290Y4788D01*
X290Y4784D01*
Y4355D01*
X527D01*
X546Y4292D01*
X514Y4270D01*
X481Y4221D01*
X478Y4205D01*
X437Y4152D01*
X410Y4087D01*
X402Y4021D01*
X401Y4018D01*
Y3839D01*
X266D01*
Y2933D01*
X817D01*
Y3839D01*
X662D01*
Y4016D01*
X664Y4018D01*
X678Y4024D01*
X727Y4057D01*
X759Y4106D01*
X771Y4163D01*
X759Y4221D01*
X727Y4270D01*
X694Y4292D01*
X713Y4355D01*
X841D01*
Y4421D01*
X1022D01*
Y4292D01*
X1042D01*
X1091Y4259D01*
X1091Y3873D01*
X1091Y3828D01*
Y3487D01*
X1091D01*
X1110Y3470D01*
Y3151D01*
X982D01*
X948Y3145D01*
X920Y3126D01*
X901Y3097D01*
X894Y3063D01*
Y2901D01*
X901Y2867D01*
X905Y2861D01*
X876Y2798D01*
X817D01*
Y2854D01*
X266D01*
Y2421D01*
X817D01*
Y2477D01*
X1231D01*
Y2006D01*
X581D01*
X536Y1988D01*
X517Y1943D01*
X517Y1257D01*
X536Y1212D01*
X581Y1193D01*
X842Y1193D01*
X842Y1193D01*
X846Y1195D01*
X851Y1194D01*
X868Y1204D01*
X887Y1212D01*
X889Y1216D01*
X893Y1219D01*
X925Y1262D01*
X998Y1339D01*
X1081Y1403D01*
X1174Y1452D01*
X1273Y1485D01*
X1376Y1502D01*
X1481D01*
X1585Y1485D01*
X1684Y1452D01*
X1776Y1403D01*
X1860Y1339D01*
X1933Y1262D01*
X1965Y1219D01*
X1969Y1216D01*
X1971Y1212D01*
X1989Y1204D01*
X2006Y1194D01*
X2011Y1195D01*
X2016Y1193D01*
X2274D01*
X2319Y1212D01*
X2338Y1257D01*
X2338Y1943D01*
X2319Y1988D01*
X2274Y2006D01*
X1632D01*
Y2638D01*
X1617Y2715D01*
X1574Y2780D01*
X1539Y2803D01*
X1531Y2821D01*
X1390Y2962D01*
Y3487D01*
X1409D01*
X1409Y3873D01*
X1409Y3918D01*
Y4259D01*
X1458Y4292D01*
X1573D01*
Y5197D01*
X1022D01*
Y4722D01*
X843D01*
X841Y4785D01*
X841Y4788D01*
X851Y4847D01*
X861D01*
Y5269D01*
D02*
G37*
G36*
X2051Y2314D02*
X1897D01*
Y2185D01*
X2051D01*
Y2314D01*
D02*
G37*
G36*
X4271Y787D02*
X3848D01*
Y463D01*
X4271D01*
Y787D01*
D02*
G37*
G36*
Y363D02*
X3848D01*
Y39D01*
X4271D01*
Y363D01*
D02*
G37*
G36*
X3624Y189D02*
X3446D01*
Y11D01*
X3624D01*
Y189D01*
D02*
G37*
G36*
X3346D02*
X3167D01*
Y11D01*
X3346D01*
Y189D01*
D02*
G37*
%LPD*%
G36*
X1486Y2776D02*
Y2756D01*
X1368D01*
X1250Y2638D01*
X1299Y2963D01*
X1486Y2776D01*
D02*
G37*
G36*
X2274Y1257D02*
X2016D01*
X1982Y1303D01*
X1903Y1387D01*
X1811Y1457D01*
X1709Y1511D01*
X1600Y1548D01*
X1486Y1566D01*
X1371D01*
X1258Y1548D01*
X1148Y1511D01*
X1047Y1457D01*
X955Y1387D01*
X876Y1303D01*
X842Y1257D01*
Y1257D01*
X581Y1257D01*
X581Y1943D01*
X2274D01*
X2274Y1257D01*
D02*
G37*
D10*
X3435Y4035D02*
G03*
X3357Y4065I-78J-89D01*
G01*
X3320Y3878D02*
X3406D01*
X3310Y3868D02*
X3320Y3878D01*
X3031Y3868D02*
X3310D01*
X3406Y3878D02*
X3441Y3914D01*
Y4091D01*
X3357Y4065D02*
X3357D01*
X3031D02*
X3357D01*
X3441Y4091D02*
X3652Y4301D01*
D11*
X2841Y-7D02*
G03*
X2714Y39I-127J-150D01*
G01*
X2377Y182D02*
G03*
X2419Y157I121J155D01*
G01*
X2521Y97D02*
G03*
X2660Y39I139J140D01*
G01*
X1634Y269D02*
G03*
X1487Y236I-34J-194D01*
G01*
X2521Y97D02*
G03*
X2460Y138I-139J-139D01*
G01*
X2841Y-7D02*
X2844Y-10D01*
X2419Y157D02*
X2460Y138D01*
X2377Y182D02*
X2377Y182D01*
X2660Y39D02*
X2714D01*
X600Y2638D02*
X1250D01*
X1354Y2638D01*
X1427Y2638D01*
X1432Y197D02*
X1487Y236D01*
X1634Y269D02*
X2146Y182D01*
X2844Y-10D02*
X2844Y-10D01*
X2146Y182D02*
X2377D01*
D12*
X2461Y4094D02*
G03*
X2531Y4065I70J70D01*
G01*
X2895Y5668D02*
G03*
X2964Y5640I69J70D01*
G01*
X2677Y5886D02*
G03*
X2606Y5915I-70J-69D01*
G01*
X2470Y5925D02*
G03*
X2513Y5915I43J89D01*
G01*
X2638Y2068D02*
G03*
X2805Y1900I167J-1D01*
G01*
X2638Y2215D02*
G03*
X2609Y2284I-98J0D01*
G01*
X3500Y5443D02*
G03*
X3540Y5451I0J98D01*
G01*
X1068Y5759D02*
G03*
X1079Y5714I98J1D01*
G01*
X1112Y5636D02*
G03*
X1137Y5597I94J30D01*
G01*
X1103Y5665D02*
G03*
X1096Y5682I-94J-30D01*
G01*
X2531Y4065D02*
X2689Y4065D01*
X2531Y4065D02*
X2531D01*
X2441Y4114D02*
X2461Y4094D01*
X2964Y5640D02*
X3031D01*
X2895Y5668D02*
X2895Y5668D01*
X2513Y5915D02*
X2606D01*
X2677Y5886D02*
X2895Y5668D01*
X2470Y5925D02*
X2470Y5925D01*
X3031Y3081D02*
X3829D01*
X3031Y5443D02*
X3500D01*
X2689Y4065D02*
X3031D01*
X3406Y1506D02*
X3406Y1506D01*
X3031Y1506D02*
X3406D01*
X1290Y4737D02*
X1298Y4745D01*
X1290Y4737D02*
X1290Y4737D01*
X1124Y4571D02*
X1290Y4737D01*
X2638Y2068D02*
Y2215D01*
X3031Y1900D02*
X3031Y1900D01*
X2805Y1900D02*
X3031Y1900D01*
X2529Y2364D02*
X2609Y2284D01*
X3031Y1309D02*
X3711D01*
X3031Y2687D02*
X3829D01*
X3540Y5451D02*
X3543Y5453D01*
X1079Y5714D02*
X1096Y5682D01*
X1103Y5665D02*
X1112Y5636D01*
X1068Y5759D02*
Y5763D01*
X1137Y5597D02*
X1241Y5493D01*
X1298D01*
X3543Y5453D02*
X3543Y5453D01*
X3031Y2884D02*
X3415D01*
X3031Y3671D02*
X3406D01*
X3031Y3278D02*
X3415D01*
X3031Y3474D02*
X3819D01*
X3031Y5049D02*
X3533D01*
X1043Y5787D02*
X1068Y5763D01*
X2504Y2364D02*
X2529D01*
D13*
X1758Y6355D02*
G03*
X1781Y6411I-56J56D01*
G01*
X1670Y6299D02*
G03*
X1726Y6322I0J79D01*
G01*
X1854Y8195D02*
G03*
X1798Y8219I-56J-55D01*
G01*
X2136Y7881D02*
G03*
X2113Y7937I-79J0D01*
G01*
X1841Y7192D02*
G03*
X1817Y7247I-79J0D01*
G01*
X1841Y7080D02*
G03*
X1864Y7024I79J0D01*
G01*
X1978Y7149D02*
G03*
X2001Y7093I79J0D01*
G01*
X1978Y7339D02*
G03*
X1955Y7395I-79J0D01*
G01*
X2585Y6923D02*
G03*
X2641Y6900I56J56D01*
G01*
X2283Y7257D02*
G03*
X2307Y7201I79J0D01*
G01*
X2283Y8185D02*
G03*
X2261Y8241I-79J0D01*
G01*
X2136Y7198D02*
G03*
X2159Y7142I79J0D01*
G01*
X2224Y6631D02*
G03*
X2201Y6687I-79J-0D01*
G01*
X2169Y8333D02*
G03*
X2113Y8356I-56J-55D01*
G01*
X2841Y6253D02*
G03*
X2897Y6230I56J56D01*
G01*
X2224Y6625D02*
G03*
X2247Y6569I79J0D01*
G01*
X1456Y7642D02*
G03*
X1479Y7586I79J0D01*
G01*
X1693Y7094D02*
G03*
X1670Y7149I-79J-0D01*
G01*
X2087Y6543D02*
G03*
X2063Y6598I-79J-0D01*
G01*
X1165Y7686D02*
G03*
X1188Y7631I79J1D01*
G01*
X2208Y8520D02*
G03*
X2152Y8543I-56J-55D01*
G01*
X2431Y8265D02*
G03*
X2408Y8321I-79J0D01*
G01*
X2772Y5476D02*
G03*
X2828Y5453I56J56D01*
G01*
X2465Y5623D02*
G03*
X2521Y5600I56J56D01*
G01*
X2671Y5577D02*
G03*
X2615Y5600I-56J-56D01*
G01*
X2490Y4783D02*
G03*
X2536Y4806I-10J78D01*
G01*
X2615Y4852D02*
G03*
X2559Y4829I1J-79D01*
G01*
X1693Y7001D02*
G03*
X1716Y6945I79J1D01*
G01*
X2182Y6332D02*
G03*
X2237Y6309I56J56D01*
G01*
X2539Y5320D02*
G03*
X2588Y5304I49J62D01*
G01*
X2732Y5280D02*
G03*
X2675Y5304I-56J-55D01*
G01*
X2743Y5269D02*
G03*
X2798Y5246I56J56D01*
G01*
X2047Y4488D02*
G03*
X2063Y4536I-63J47D01*
G01*
X2523Y3816D02*
G03*
X2467Y3839I-56J-56D01*
G01*
X1872Y3917D02*
G03*
X1951Y3839I79J0D01*
G01*
X2431Y7336D02*
G03*
X2454Y7280I79J0D01*
G01*
X2575Y7159D02*
G03*
X2631Y7136I56J56D01*
G01*
X2087Y6460D02*
G03*
X2110Y6404I79J0D01*
G01*
X945Y6473D02*
G03*
X922Y6529I-79J0D01*
G01*
X600Y6883D02*
G03*
X623Y6827I79J0D01*
G01*
X1485Y7025D02*
G03*
X1459Y7098I-118J-0D01*
G01*
X1459Y7098D02*
G03*
X1340Y7156I-119J-96D01*
G01*
X3484Y4400D02*
Y4665D01*
X3327Y4242D02*
X3484Y4400D01*
X3051Y4242D02*
X3327D01*
X3031Y4262D02*
X3051Y4242D01*
X2461Y3278D02*
X2677D01*
X2687Y3287D01*
Y2598D02*
Y3287D01*
Y2598D02*
X2795Y2490D01*
X3031D01*
X1758Y6355D02*
X1758Y6355D01*
X1726Y6322D02*
X1758Y6355D01*
X1514Y6299D02*
X1670D01*
X1870Y2746D02*
X2020D01*
X2115Y2825D02*
X2421D01*
X2020Y2746D02*
X2099Y2825D01*
X2115D01*
X2126Y3583D02*
X2154D01*
X2136Y7198D02*
Y7881D01*
X1624Y8219D02*
X1798D01*
X1854Y8195D02*
X2113Y7937D01*
X1864Y7024D02*
X2185Y6703D01*
X1479Y7586D02*
X1817Y7247D01*
X1841Y7080D02*
Y7192D01*
X1713Y7638D02*
X1955Y7395D01*
X2001Y7093D02*
X2841Y6253D01*
X1978Y7149D02*
Y7339D01*
X1713Y7638D02*
Y8031D01*
X2159Y7142D02*
X2713Y6588D01*
X1762Y8356D02*
X2113D01*
X2307Y7201D02*
X2585Y6923D01*
X2713Y6588D02*
X2825Y6476D01*
X2307Y7201D02*
X2307Y7201D01*
X2169Y8333D02*
X2260Y8242D01*
X2283Y8185D02*
X2283Y7257D01*
X2224Y6631D02*
X2224Y6631D01*
Y6625D02*
Y6631D01*
X2897Y6230D02*
X3031D01*
X1456Y7642D02*
Y8013D01*
X2247Y6569D02*
X2313Y6504D01*
X1693Y7094D02*
X1693Y7093D01*
Y7001D02*
Y7093D01*
X1188Y7631D02*
X1670Y7149D01*
X1165Y7686D02*
Y8028D01*
X2431Y7336D02*
Y8265D01*
X1850Y8543D02*
X2152D01*
X2208Y8520D02*
X2408Y8321D01*
X2828Y5453D02*
X2943D01*
X2828Y5453D02*
Y5453D01*
X2521Y5600D02*
X2615D01*
X2671Y5577D02*
X2772Y5476D01*
X2451Y5638D02*
X2465Y5623D01*
X2615Y4852D02*
X2615Y4852D01*
X3031D01*
X2490Y4783D02*
X2490D01*
X2536Y4806D02*
X2559Y4829D01*
X2825Y6476D02*
X2972D01*
X3031Y6230D02*
X3209Y6407D01*
X2237Y6309D02*
X2546D01*
X1716Y6945D02*
X2063Y6598D01*
X2087Y6460D02*
Y6542D01*
X2087Y6543D02*
X2087Y6542D01*
X2110Y6404D02*
X2182Y6332D01*
X2732Y5280D02*
X2743Y5269D01*
X2539Y5320D02*
X2539Y5320D01*
X2588Y5304D02*
X2675D01*
X2798Y5246D02*
X3031D01*
X2490Y5049D02*
X3031D01*
X2480Y5059D02*
X2490Y5049D01*
X2569Y3522D02*
Y3770D01*
X2047Y4488D02*
X2047Y4488D01*
X1872Y3917D02*
Y4134D01*
X1959Y4222D02*
Y4488D01*
X1870Y4134D02*
X1959Y4222D01*
X2461Y4459D02*
X3031D01*
X2451Y4449D02*
X2461Y4459D01*
X2523Y3816D02*
X2569Y3770D01*
X1951Y3839D02*
X2467D01*
X2293Y3632D02*
X2323Y3661D01*
X2106Y3583D02*
X2126D01*
X2203Y3632D02*
X2293D01*
X2154Y3583D02*
X2203Y3632D01*
X2421Y3375D02*
X2569Y3522D01*
X2063Y4536D02*
Y5863D01*
X2454Y7280D02*
X2575Y7159D01*
X2260Y8242D02*
X2261Y8241D01*
X2631Y7136D02*
X2854D01*
X2631Y7136D02*
Y7136D01*
X2641Y6900D02*
X2785Y6900D01*
X2313Y6496D02*
Y6504D01*
X1437Y8031D02*
X1456Y8013D01*
X1161Y8031D02*
X1165Y8028D01*
X623Y6827D02*
X922Y6529D01*
X600Y6883D02*
Y7087D01*
X945Y6457D02*
Y6473D01*
Y6378D02*
X945Y6457D01*
X1357D01*
X1485Y7025D02*
X1485Y7024D01*
X1459Y7098D02*
X1459Y7098D01*
X1339Y7156D02*
X1340Y7156D01*
X1485Y7024D02*
X1485Y6821D01*
X1289Y7156D02*
X1339D01*
X1781Y6411D02*
Y6486D01*
X1575Y8543D02*
X1762Y8356D01*
X1299Y8543D02*
X1624Y8219D01*
X1514Y6457D02*
Y6791D01*
D14*
X2087Y3327D02*
G03*
X2126Y3423I-98J96D01*
G01*
X2086Y3326D02*
G03*
X2087Y3327I-97J97D01*
G01*
X572Y4115D02*
G03*
X531Y4018I97J-97D01*
G01*
X531Y3437D02*
G03*
X541Y3386I138J0D01*
G01*
X1290Y4737D02*
G03*
X1250Y4640I98J-97D01*
G01*
X2087Y3327D02*
X2087D01*
X1978Y3327D02*
X2087Y3327D01*
X1959Y3327D02*
X1978D01*
X2086Y3326D02*
X2087Y3327D01*
X2126Y3423D02*
Y3583D01*
X541Y3386D02*
X541Y3386D01*
X531Y3437D02*
X531Y4018D01*
X572Y4115D02*
X620Y4163D01*
D15*
X1290Y4737D02*
D03*
D16*
X3396Y-39D02*
D03*
X2846D02*
D03*
X1870Y4134D02*
D03*
X2420D02*
D03*
D17*
X2504Y2364D02*
D03*
X2101D02*
D03*
X1081Y6821D02*
D03*
X1485D02*
D03*
X2451Y4488D02*
D03*
X2047D02*
D03*
X2451Y4776D02*
D03*
X2047D02*
D03*
Y5063D02*
D03*
X2451D02*
D03*
Y5350D02*
D03*
X2047D02*
D03*
Y5638D02*
D03*
X2451D02*
D03*
Y5925D02*
D03*
X2047D02*
D03*
D18*
X541Y2638D02*
D03*
X565Y4571D02*
D03*
X1298Y5493D02*
D03*
D19*
X541Y3386D02*
D03*
X565Y5319D02*
D03*
X1298Y4745D02*
D03*
D20*
X1132Y2982D02*
D03*
X1978Y2707D02*
D03*
Y3258D02*
D03*
D21*
X2421Y2736D02*
D03*
Y3286D02*
D03*
D22*
X2569Y3661D02*
D03*
X2323D02*
D03*
X699Y6378D02*
D03*
X945D02*
D03*
D23*
X1250Y4075D02*
D03*
Y3671D02*
D03*
D24*
X1357Y6457D02*
D03*
Y6299D02*
D03*
X1514Y6457D02*
D03*
Y6299D02*
D03*
D25*
X3031Y3868D02*
D03*
Y4262D02*
D03*
Y4065D02*
D03*
Y5443D02*
D03*
Y5640D02*
D03*
Y5049D02*
D03*
Y5246D02*
D03*
Y4852D02*
D03*
Y4656D02*
D03*
Y4459D02*
D03*
Y2490D02*
D03*
Y2687D02*
D03*
Y2884D02*
D03*
Y3278D02*
D03*
Y3081D02*
D03*
Y3671D02*
D03*
Y3474D02*
D03*
Y2096D02*
D03*
Y2293D02*
D03*
Y1703D02*
D03*
Y1506D02*
D03*
Y1309D02*
D03*
Y1112D02*
D03*
D26*
Y1900D02*
D03*
D27*
X4321Y413D02*
D03*
Y6339D02*
D03*
D28*
X1432Y1811D02*
D03*
Y197D02*
D03*
D29*
X1250Y2930D02*
Y3470D01*
X1431Y2677D02*
X1437Y2677D01*
X1250Y2697D02*
Y2930D01*
X1250Y2929D02*
X1250Y2930D01*
Y3470D02*
X1250Y3671D01*
D30*
X3819Y3474D02*
X3829Y3484D01*
X3711Y1309D02*
X3711Y1309D01*
X3406Y3671D02*
X3406Y3671D01*
X3415Y3278D02*
X3415Y3278D01*
X3031Y5049D02*
X3031Y5049D01*
X1485Y6821D02*
X1514Y6791D01*
D31*
X1250Y4075D02*
Y4640D01*
X565Y4571D02*
X1124D01*
D32*
X1432Y1896D02*
Y2638D01*
D33*
X2785Y6900D02*
D03*
X3209Y6407D02*
D03*
X2520Y6309D02*
D03*
X1437Y2677D02*
D03*
X1230Y6073D02*
D03*
X3406Y1506D02*
D03*
X984Y2303D02*
D03*
X1821Y1004D02*
D03*
X1033D02*
D03*
X374Y6083D02*
D03*
X846Y6073D02*
D03*
X3524Y6693D02*
D03*
X3494Y4665D02*
D03*
X335Y6713D02*
D03*
X4429Y1959D02*
D03*
X4456Y1360D02*
D03*
X2377Y182D02*
D03*
X2146D02*
D03*
X3711Y1309D02*
D03*
X3652Y4301D02*
D03*
X2313Y6496D02*
D03*
X522Y7953D02*
D03*
X600Y7087D02*
D03*
X1713Y8031D02*
D03*
X1781Y6486D02*
D03*
X2963Y6467D02*
D03*
X1850Y8543D02*
D03*
X1437Y8031D02*
D03*
X2854Y7136D02*
D03*
X620Y4163D02*
D03*
X1575Y8543D02*
D03*
X2115Y2825D02*
D03*
X2132Y3587D02*
D03*
X1299Y8543D02*
D03*
X1161Y8031D02*
D03*
X1289Y7156D02*
D03*
X3829Y3474D02*
D03*
Y2697D02*
D03*
X3415Y2884D02*
D03*
X3829Y3091D02*
D03*
X3415Y3278D02*
D03*
X3406Y3671D02*
D03*
X3540Y5451D02*
D03*
X3533Y5049D02*
D03*
X1043Y5787D02*
D03*
M02*
