M48
;Layer_Color=9474304
;FILE_FORMAT=2:4
INCH,LZ
;TYPE=PLATED
T1F00S00C0.0079
%
T01
X001033Y001004
X001821
X002146Y000182
X002377
X003406Y001506
X003711Y001309
X004456Y00136
X004429Y001959
X003829Y002697
Y003091
X003415Y003278
Y002884
X002115Y002825
X001437Y002677
X000984Y002303
X00062Y004163
X001043Y005787
X00123Y006073
X000846
X000374Y006083
X000335Y006713
X0006Y007087
X001289Y007156
X001161Y008031
X001437
X001713
X001575Y008543
X001299
X00185
X000522Y007953
X001781Y006486
X002313Y006496
X00252Y006309
X002963Y006467
X003209Y006407
X003524Y006693
X002785Y0069
X002854Y007136
X00354Y005451
X003533Y005049
X003494Y004665
X003652Y004301
X003406Y003671
X003829Y003474
X002132Y003587
M30
