G04*
G04 #@! TF.GenerationSoftware,Altium Limited,Altium Designer,20.1.14 (287)*
G04*
G04 Layer_Color=32896*
%FSLAX24Y24*%
%MOIN*%
G70*
G04*
G04 #@! TF.SameCoordinates,895090D0-6B7F-4F05-9124-98F443DF3968*
G04*
G04*
G04 #@! TF.FilePolarity,Positive*
G04*
G01*
G75*
%ADD17C,0.0079*%
%ADD56C,0.0039*%
%ADD57C,0.0059*%
%ADD58C,0.0050*%
D17*
X1289Y2549D02*
Y2726D01*
Y2549D02*
X1683D01*
X1289Y3238D02*
Y3415D01*
X1683D01*
X1601Y1132D02*
Y856D01*
X1417D01*
X1325D02*
X1234D01*
X1280D01*
Y1132D01*
X1325Y1086D01*
D56*
X276Y3563D02*
G03*
X276Y3563I-20J0D01*
G01*
X1632Y6161D02*
G03*
X1632Y6161I-20J0D01*
G01*
X300Y5496D02*
G03*
X300Y5496I-20J0D01*
G01*
X1603Y4567D02*
G03*
X1603Y4567I-20J0D01*
G01*
X2377Y874D02*
Y1149D01*
X487Y874D02*
Y1149D01*
D57*
X1811Y3474D02*
G03*
X1811Y3474I-30J0D01*
G01*
X4469Y29D02*
X4547D01*
X4508D01*
Y-167D01*
X4547Y-207D01*
X4587D01*
X4626Y-167D01*
X4390Y-207D02*
X4311D01*
X4350D01*
Y29D01*
X4390Y-10D01*
D58*
X2638Y167D02*
X3602D01*
Y-246D02*
Y167D01*
X2638Y-246D02*
X3602D01*
X2638D02*
Y167D01*
X1924Y2512D02*
X2681D01*
Y2217D02*
Y2512D01*
X1924Y2217D02*
X2681D01*
X1924D02*
Y2512D01*
X2628Y2530D02*
Y3494D01*
X2215Y2530D02*
Y3494D01*
X2628D01*
X2215Y2530D02*
X2628D01*
X1663Y3927D02*
X2628D01*
X1663D02*
Y4341D01*
X2628D01*
Y3927D02*
Y4341D01*
X1102Y3494D02*
Y4252D01*
X1398D01*
Y3494D02*
Y4252D01*
X1102Y3494D02*
X1398D01*
X904Y6673D02*
X1662D01*
X904D02*
Y6969D01*
X1662D01*
Y6673D02*
Y6969D01*
X1870Y4636D02*
X2628D01*
Y4341D02*
Y4636D01*
X1870Y4341D02*
X2628D01*
X1870D02*
Y4636D01*
Y4923D02*
X2628D01*
Y4628D02*
Y4923D01*
X1870Y4628D02*
X2628D01*
X1870D02*
Y4923D01*
Y4915D02*
Y5211D01*
Y4915D02*
X2628D01*
Y5211D01*
X1870D02*
X2628D01*
X1870Y5498D02*
X2628D01*
Y5203D02*
Y5498D01*
X1870Y5203D02*
X2628D01*
X1870D02*
Y5498D01*
Y5490D02*
Y5785D01*
Y5490D02*
X2628D01*
Y5785D01*
X1870D02*
X2628D01*
X1870Y6073D02*
X2628D01*
Y5778D02*
Y6073D01*
X1870Y5778D02*
X2628D01*
X1870D02*
Y6073D01*
M02*
