G04*
G04 #@! TF.GenerationSoftware,Altium Limited,Altium Designer,20.1.14 (287)*
G04*
G04 Layer_Color=8388736*
%FSLAX24Y24*%
%MOIN*%
G70*
G04*
G04 #@! TF.SameCoordinates,895090D0-6B7F-4F05-9124-98F443DF3968*
G04*
G04*
G04 #@! TF.FilePolarity,Negative*
G04*
G01*
G75*
G04:AMPARAMS|DCode=14|XSize=20.3mil|YSize=15.4mil|CornerRadius=1.8mil|HoleSize=0mil|Usage=FLASHONLY|Rotation=0.000|XOffset=0mil|YOffset=0mil|HoleType=Round|Shape=RoundedRectangle|*
%AMROUNDEDRECTD14*
21,1,0.0203,0.0117,0,0,0.0*
21,1,0.0166,0.0154,0,0,0.0*
1,1,0.0037,0.0083,-0.0058*
1,1,0.0037,-0.0083,-0.0058*
1,1,0.0037,-0.0083,0.0058*
1,1,0.0037,0.0083,0.0058*
%
%ADD14ROUNDEDRECTD14*%
G04:AMPARAMS|DCode=15|XSize=9.4mil|YSize=18.1mil|CornerRadius=1.5mil|HoleSize=0mil|Usage=FLASHONLY|Rotation=180.000|XOffset=0mil|YOffset=0mil|HoleType=Round|Shape=RoundedRectangle|*
%AMROUNDEDRECTD15*
21,1,0.0094,0.0150,0,0,180.0*
21,1,0.0064,0.0181,0,0,180.0*
1,1,0.0031,-0.0032,0.0075*
1,1,0.0031,0.0032,0.0075*
1,1,0.0031,0.0032,-0.0075*
1,1,0.0031,-0.0032,-0.0075*
%
%ADD15ROUNDEDRECTD15*%
D14*
X491Y8327D02*
D03*
X491Y7589D02*
D03*
X2243D02*
D03*
X2243Y8327D02*
D03*
D15*
X747Y8327D02*
D03*
X884D02*
D03*
X1022D02*
D03*
X1160D02*
D03*
X1298D02*
D03*
X1436D02*
D03*
X1573D02*
D03*
X1711D02*
D03*
X1849D02*
D03*
X1987D02*
D03*
X747Y7589D02*
D03*
X884D02*
D03*
X1022D02*
D03*
X1160D02*
D03*
X1298D02*
D03*
X1436D02*
D03*
X1573D02*
D03*
X1711D02*
D03*
X1849D02*
D03*
X1987D02*
D03*
M02*
